<?xml version="1.0" encoding="UTF-8"?>
<svg width="522px" height="657px" viewBox="0 0 522 657" version="1.1" xmlns="http://www.w3.org/2000/svg" xmlns:xlink="http://www.w3.org/1999/xlink">
    <!-- Generator: Sketch 49.2 (51160) - http://www.bohemiancoding.com/sketch -->
    <title>error</title>
    <desc>Created with Sketch.</desc>
    <defs></defs>
    <g id="Page-1" stroke="none" stroke-width="1" fill="none" fill-rule="evenodd">
        <g id="error" fill-rule="nonzero">
            <g id="book" fill="#5A5A5A">
                <path d="M503.202591,170.603704 L103.318135,170.603704 C66.2642487,170.603704 35.9720207,140.457407 35.9720207,103.281481 C35.9720207,66.2407407 66.1290155,35.9592593 103.318135,35.9592593 L503.337824,35.9592593 C513.345078,35.9592593 521.323834,27.8481481 521.323834,17.9796296 C521.323834,7.97592593 513.209845,0 503.337824,0 L103.318135,0 C46.3849741,-9.60548513e-15 0,46.3685185 0,103.281481 L0,553.042593 C0,609.955556 46.3849741,656.324074 103.318135,656.324074 L503.337824,656.324074 C513.345078,656.324074 521.323834,648.212963 521.323834,638.344444 L521.323834,188.583333 C521.188601,178.714815 513.209845,170.603704 503.202591,170.603704 Z M485.21658,620.364815 L103.318135,620.364815 C66.2642487,620.364815 35.9720207,590.218519 35.9720207,553.042593 L35.9720207,181.688889 C54.0932642,197.235185 77.6238342,206.698148 103.318135,206.698148 L485.21658,206.698148 L485.21658,620.364815 Z" id="Shape"></path>
                <path d="M108.997927,86.9240741 C98.9906736,86.9240741 91.0119171,95.0351852 91.0119171,104.903704 C91.0119171,114.772222 99.1259067,122.883333 108.997927,122.883333 L446.810363,122.883333 C456.817617,122.883333 464.796373,114.772222 464.796373,104.903704 C464.796373,95.0351852 456.682383,86.9240741 446.810363,86.9240741 L108.997927,86.9240741 Z" id="Shape"></path>
            </g>
            <g id="sad-rounded-square-emoticon" transform="translate(121.000000, 269.000000)" fill="#EA6161">
                <path d="M41.1048104,41.0984054 C-13.705136,95.9073182 -13.699837,185.082084 41.1101094,239.898945 C95.9068084,294.702559 185.083256,294.702559 239.895852,239.885698 C294.703149,185.082084 294.69785,95.912617 239.901151,41.1169514 C185.083256,-13.7025591 95.9068084,-13.7025591 41.1048104,41.0984054 Z M225.184969,225.18619 C178.768465,271.600623 103.232198,271.60593 56.8183478,225.19415 C10.3912308,178.766451 10.3965374,103.229237 56.8183478,56.8121512 C103.229545,10.3977185 178.763158,10.3924119 225.190275,56.8174578 C271.606779,103.23189 271.601473,178.769104 225.184969,225.18619 Z M204.347861,195.793423 C206.084301,199.826836 204.23404,204.507292 200.210581,206.252188 C196.184475,207.999735 191.512498,206.140811 189.770764,202.11005 C182.110311,184.37205 164.015334,172.905595 143.659809,172.905595 C122.830469,172.905595 104.621672,184.361443 97.2762124,202.091488 C96.0056465,205.14638 93.0515807,206.997348 89.9413412,207 C88.9222415,207 87.8952007,206.803766 86.8972771,206.390082 C82.8447012,204.700875 80.9256172,200.044285 82.6117641,195.989658 C92.4295328,172.303633 116.398229,157 143.662456,157 C170.352282,156.997348 194.175393,172.224078 204.347861,195.793423 Z M78.8668164,99.7090562 C77.0747346,96.5665962 78.1510441,92.5583565 81.2686302,90.7546486 L105.247003,76.8701062 C108.364589,75.0690705 112.341102,76.1539674 114.133184,79.2937551 C115.925265,82.4362151 114.848956,86.4444548 111.73137,88.2481627 L87.7529972,102.127361 C84.6327601,103.931069 80.6562472,102.848844 78.8668164,99.7090562 Z M115.633368,100.369211 C120.122211,104.861492 120.122211,112.149147 115.633368,116.633449 C111.144525,121.12307 103.863452,121.12307 99.366632,116.628129 C94.8777893,112.138508 94.8777893,104.856172 99.366632,100.369211 C103.858134,95.8769298 111.141866,95.8769298 115.633368,100.369211 Z M155.027475,60.7400068 C155.351734,57.2743563 158.546085,54.7149092 162.16117,55.0255342 L190.009913,57.4232509 C193.627677,57.7338759 196.302143,60.7939169 195.972525,64.2621346 C195.648266,67.7303523 192.456594,70.2872323 188.83347,69.9740402 L160.992766,67.5788906 C157.372322,67.2682656 154.697856,64.2030902 155.027475,60.7400068 Z M183.633368,100.370913 C188.122211,104.860145 188.122211,112.141849 183.633368,116.628422 C179.136548,121.122973 171.850156,121.122973 167.366632,116.633741 C162.877789,112.147168 162.877789,104.862805 167.366632,100.370913 C171.855475,95.8763623 179.136548,95.8763623 183.633368,100.370913 Z" id="Shape"></path>
            </g>
        </g>
    </g>
</svg>