<svg width="911" height="170" xmlns="http://www.w3.org/2000/svg"><g fill="none" fill-rule="evenodd"><path d="M564.029 82.47h29.172v9.306h-19.866v12.144h14.982v8.316h-14.982v7.062h21.318v9.372h-30.624v-46.2zm60.456.066l9.768 15.972 8.646-15.972h11.022l-14.058 24.552 15.444 21.582h-11.154l-9.834-13.134-9.174 13.134h-11.22l14.784-21.516-15.444-24.618h11.22zm49.434-.066h15.708c2.332 0 4.741.693 7.227 2.079 2.486 1.386 4.565 3.41 6.237 6.072 1.672 2.662 2.508 5.775 2.508 9.339 0 3.476-.759 6.435-2.277 8.877-1.518 2.442-3.399 4.268-5.643 5.478-2.244 1.21-4.444 1.815-6.6 1.815l-7.854.066v12.474h-9.306v-46.2zm17.16 24.354c.352 0 .924-.143 1.716-.429.792-.286 1.573-.946 2.343-1.98s1.155-2.519 1.155-4.455c0-1.892-.396-3.454-1.188-4.686-.792-1.232-1.716-2.123-2.772-2.673-1.056-.55-1.958-.825-2.706-.825h-6.402v15.048h7.854zm32.472-24.354h15.708c2.332 0 4.741.704 7.227 2.112 2.486 1.408 4.565 3.432 6.237 6.072 1.672 2.64 2.508 5.742 2.508 9.306 0 3.08-.66 5.852-1.98 8.316-1.32 2.464-3.19 4.422-5.61 5.874l7.194 14.52h-9.306l-6.204-12.54-6.468.066v12.474h-9.306v-46.2zm17.094 24.354c.352 0 .924-.143 1.716-.429.792-.286 1.573-.946 2.343-1.98s1.155-2.519 1.155-4.455c0-1.892-.396-3.454-1.188-4.686-.792-1.232-1.705-2.123-2.739-2.673-1.034-.55-1.925-.825-2.673-.825h-6.402v15.048h7.788zm32.538-24.354h29.172v9.306h-19.866v12.144h14.982v8.316h-14.982v7.062h21.318v9.372h-30.624v-46.2zm65.802 46.2c-4.048 0-7.579-.88-10.593-2.64-3.014-1.76-5.291-4.246-6.831-7.458l8.184-4.422c.836 1.76 1.991 3.058 3.465 3.894 1.474.836 3.377 1.254 5.709 1.254 2.2-.088 3.927-.473 5.181-1.155s1.881-1.595 1.881-2.739c0-.484-.132-1.012-.396-1.584-.352-.704-.957-1.232-1.815-1.584-.858-.352-2.387-.704-4.587-1.056-2.2-.396-4.004-.781-5.412-1.155-1.408-.374-2.794-.979-4.158-1.815-1.98-1.188-3.52-2.772-4.62-4.752s-1.65-4.136-1.65-6.468c0-.792.11-1.738.33-2.838.572-3.036 2.046-5.599 4.422-7.689s5.28-3.421 8.712-3.993c1.584-.176 2.706-.264 3.366-.264 3.652 0 6.93.891 9.834 2.673s5.28 4.367 7.128 7.755l-8.118 4.62c-1.936-3.784-4.818-5.676-8.646-5.676-.704 0-1.43.066-2.178.198-1.496.22-2.717.715-3.663 1.485-.946.77-1.485 1.705-1.617 2.805-.088.308-.132.726-.132 1.254 0 1.364.649 2.354 1.947 2.97 1.298.616 3.289 1.144 5.973 1.584 2.42.396 4.455.847 6.105 1.353 1.65.506 3.223 1.419 4.719 2.739 1.496 1.32 2.53 3.19 3.102 5.61.308 1.232.462 2.53.462 3.894 0 2.948-.836 5.456-2.508 7.524-1.364 1.804-3.223 3.19-5.577 4.158-2.354.968-5.027 1.474-8.019 1.518zm53.064 0c-4.048 0-7.579-.88-10.593-2.64-3.014-1.76-5.291-4.246-6.831-7.458l8.184-4.422c.836 1.76 1.991 3.058 3.465 3.894 1.474.836 3.377 1.254 5.709 1.254 2.2-.088 3.927-.473 5.181-1.155s1.881-1.595 1.881-2.739c0-.484-.132-1.012-.396-1.584-.352-.704-.957-1.232-1.815-1.584-.858-.352-2.387-.704-4.587-1.056-2.2-.396-4.004-.781-5.412-1.155-1.408-.374-2.794-.979-4.158-1.815-1.98-1.188-3.52-2.772-4.62-4.752s-1.65-4.136-1.65-6.468c0-.792.11-1.738.33-2.838.572-3.036 2.046-5.599 4.422-7.689s5.28-3.421 8.712-3.993c1.584-.176 2.706-.264 3.366-.264 3.652 0 6.93.891 9.834 2.673s5.28 4.367 7.128 7.755l-8.118 4.62c-1.936-3.784-4.818-5.676-8.646-5.676-.704 0-1.43.066-2.178.198-1.496.22-2.717.715-3.663 1.485-.946.77-1.485 1.705-1.617 2.805-.088.308-.132.726-.132 1.254 0 1.364.649 2.354 1.947 2.97 1.298.616 3.289 1.144 5.973 1.584 2.42.396 4.455.847 6.105 1.353 1.65.506 3.223 1.419 4.719 2.739 1.496 1.32 2.53 3.19 3.102 5.61.308 1.232.462 2.53.462 3.894 0 2.948-.836 5.456-2.508 7.524-1.364 1.804-3.223 3.19-5.577 4.158-2.354.968-5.027 1.474-8.019 1.518z" fill="#06BE9F"/><path d="M204.065 82.536h29.304v9.372h-19.998v13.068h13.002v8.316h-13.002v15.378h-9.306V82.536zm47.256-.066h29.172v9.306h-19.866v12.144h14.982v8.316h-14.982v7.062h21.318v9.372h-30.624v-46.2zm64.878-.198h8.448l16.566 46.398h-9.834l-3.234-9.108h-15.378l-3.3 9.108h-9.834l16.566-46.398zm8.91 28.974l-4.686-13.068-4.752 13.068h9.438zm47.784-19.536h-13.992v-9.372h37.422v9.372h-14.058v36.96h-9.372V91.71zm58.344 36.96c-5.588 0-9.812-1.573-12.672-4.719-2.86-3.146-4.29-7.799-4.29-13.959V82.404h9.306v27.588c0 2.464.231 4.356.693 5.676.462 1.32 1.232 2.255 2.31 2.805 1.078.55 2.629.825 4.653.825 2.64 0 4.51-.693 5.61-2.079 1.1-1.386 1.65-3.795 1.65-7.227V82.404h9.372v27.588c0 5.984-1.43 10.593-4.29 13.827-2.86 3.234-6.974 4.851-12.342 4.851zm34.584-46.2h15.708c2.332 0 4.741.704 7.227 2.112 2.486 1.408 4.565 3.432 6.237 6.072 1.672 2.64 2.508 5.742 2.508 9.306 0 3.08-.66 5.852-1.98 8.316-1.32 2.464-3.19 4.422-5.61 5.874l7.194 14.52h-9.306l-6.204-12.54-6.468.066v12.474h-9.306v-46.2zm17.094 24.354c.352 0 .924-.143 1.716-.429.792-.286 1.573-.946 2.343-1.98s1.155-2.519 1.155-4.455c0-1.892-.396-3.454-1.188-4.686-.792-1.232-1.705-2.123-2.739-2.673-1.034-.55-1.925-.825-2.673-.825h-6.402v15.048h7.788zm32.538-24.354h29.172v9.306h-19.866v12.144h14.982v8.316h-14.982v7.062h21.318v9.372h-30.624v-46.2z" fill="#5A5A5A"/><path d="M68.8 74C52.883 74 40 86.824 40 102.67c0 13.952 10.046 25.544 23.304 28.123V139c17.237-2.587 32.499-16.207 33.638-34.087.685-10.762-4.705-21.748-13.796-27.083-.52-.305-1.05-.609-1.594-.875a23.897 23.897 0 0 0-1.704-.766c-.184-.077-.364-.146-.55-.22-.505-.185-1.016-.394-1.538-.546A28.693 28.693 0 0 0 68.8 74z" fill="#06BE9F" fill-rule="nonzero"/><path d="M827.755 50.484c1.075.97 1.612 2.331 1.612 4.082 0 1.023-.221 1.937-.663 2.743a4.768 4.768 0 0 1-1.846 1.885c-.789.45-1.686.676-2.691.676h-7.228V41.748h5.746c1.161 0 2.18.23 3.055.689a5 5 0 0 1 2.041 1.937c.485.832.728 1.794.728 2.886 0 1.23-.251 2.305-.754 3.224zm-7.176-1.196l2.808-.026c.555-.035.932-.19 1.131-.468.2-.277.299-.789.299-1.534 0-.52-.126-.958-.377-1.313s-.836-.533-1.755-.533h-2.106v3.874zm3.588 6.916c1.023 0 1.534-.546 1.534-1.638 0-1.04-.39-1.586-1.17-1.638l-3.952.026v3.25h3.588zm23.372 3.666a8.89 8.89 0 0 1-4.563-1.222 9.075 9.075 0 0 1-3.315-3.315 8.89 8.89 0 0 1-1.222-4.563c0-1.647.407-3.163 1.222-4.55a9.106 9.106 0 0 1 3.315-3.302 8.89 8.89 0 0 1 4.563-1.222c1.63 0 3.142.407 4.537 1.222a9.075 9.075 0 0 1 3.315 3.315 8.842 8.842 0 0 1 1.222 4.537 8.89 8.89 0 0 1-1.222 4.563 9.075 9.075 0 0 1-3.315 3.315 8.842 8.842 0 0 1-4.537 1.222zm0-3.692c.97 0 1.872-.243 2.704-.728a5.401 5.401 0 0 0 1.976-1.976 5.274 5.274 0 0 0 .728-2.704c0-.97-.243-1.868-.728-2.691a5.432 5.432 0 0 0-1.976-1.963 5.274 5.274 0 0 0-2.704-.728c-.988 0-1.898.243-2.73.728a5.432 5.432 0 0 0-1.976 1.963 5.205 5.205 0 0 0-.728 2.691c0 .988.243 1.894.728 2.717a5.432 5.432 0 0 0 1.976 1.963 5.322 5.322 0 0 0 2.73.728zm25.946 3.692a8.89 8.89 0 0 1-4.563-1.222 9.075 9.075 0 0 1-3.315-3.315 8.89 8.89 0 0 1-1.222-4.563c0-1.647.407-3.163 1.222-4.55a9.106 9.106 0 0 1 3.315-3.302 8.89 8.89 0 0 1 4.563-1.222c1.63 0 3.142.407 4.537 1.222a9.075 9.075 0 0 1 3.315 3.315 8.842 8.842 0 0 1 1.222 4.537 8.89 8.89 0 0 1-1.222 4.563 9.075 9.075 0 0 1-3.315 3.315 8.842 8.842 0 0 1-4.537 1.222zm0-3.692c.97 0 1.872-.243 2.704-.728a5.401 5.401 0 0 0 1.976-1.976 5.274 5.274 0 0 0 .728-2.704c0-.97-.243-1.868-.728-2.691a5.432 5.432 0 0 0-1.976-1.963 5.274 5.274 0 0 0-2.704-.728c-.988 0-1.898.243-2.73.728a5.432 5.432 0 0 0-1.976 1.963 5.205 5.205 0 0 0-.728 2.691c0 .988.243 1.894.728 2.717a5.432 5.432 0 0 0 1.976 1.963 5.322 5.322 0 0 0 2.73.728zm23.632-3.302l-1.82 2.106v4.888h-3.666V41.748h3.666v7.618l6.448-7.618h4.602l-7.02 8.528 6.188 9.594h-3.848l-4.55-6.994z" fill="#A3A3A3"/><path d="M74.592 84.558a3.126 3.126 0 0 0-2.74 1.101c-.526.705-.855 1.388-1.206 2.093-1.052 2.467-.701 5.11.877 7.049 2.455-.529 4.537-2.104 5.59-4.571a5.58 5.58 0 0 0 .548-2.313c.11-1.872-1.432-3.19-3.07-3.36zm-12.769.165c-1.6.153-3.123 1.432-3.123 3.194 0 .705.197 1.608.548 2.313 1.052 2.467 3.299 4.042 5.754 4.57 1.403-1.938 1.764-4.581.712-7.048-.35-.705-.68-1.399-1.205-1.928a3.073 3.073 0 0 0-2.686-1.101zm-8.603 8.48c-2.765.143-4 3.635-1.699 5.453a13.17 13.17 0 0 0 2.082 1.266c2.455 1.058 5.294.694 7.398-.716-.526-2.29-2.312-4.394-4.767-5.452-.877-.352-1.59-.55-2.466-.55-.197-.022-.364-.01-.548 0zm27.016 10.684a7.993 7.993 0 0 0-4.548 1.322c.526 2.291 2.312 4.395 4.767 5.452.877.353 1.59.55 2.466.55 3.157.177 4.702-3.744 2.247-5.506-.701-.529-1.38-.86-2.082-1.212a7.542 7.542 0 0 0-2.85-.606zm-23.947.166a7.542 7.542 0 0 0-2.85.605c-.877.353-1.556.738-2.082 1.267-2.28 1.938-.746 5.628 2.41 5.452.878 0 1.765-.198 2.467-.55 2.455-1.058 4.198-3.162 4.548-5.453a7.82 7.82 0 0 0-4.493-1.321zm8.877 5.397c-2.455.528-4.537 2.103-5.59 4.57-.35.705-.547 1.553-.547 2.258-.176 2.996 3.89 4.604 5.644 2.313.526-.705.855-1.388 1.206-2.092 1.052-2.291.69-4.935-.713-7.05zm6.521.165c-1.402 1.938-1.764 4.582-.712 7.049.35.705.68 1.399 1.206 1.927 1.929 2.115 5.984.55 5.808-2.092a5.58 5.58 0 0 0-.548-2.313c-1.052-2.468-3.299-4.043-5.754-4.571z" fill="#FFF" fill-rule="nonzero"/><g fill="#5A5A5A" fill-rule="nonzero"><path d="M130.139 44.144H26.72c-9.583 0-17.417-7.8-17.417-17.42 0-9.584 7.8-17.42 17.417-17.42h103.454a4.65 4.65 0 0 0 4.651-4.652A4.65 4.65 0 0 0 130.174 0H26.72C11.996 0 0 11.998 0 26.724v116.377c0 14.726 11.996 26.724 26.72 26.724h103.454a4.65 4.65 0 0 0 4.651-4.652V48.796c-.035-2.553-2.098-4.652-4.686-4.652zm-4.652 116.377H26.72c-9.583 0-17.417-7.8-17.417-17.42V47.012c4.687 4.023 10.772 6.472 17.417 6.472h98.767V160.52z"/><path d="M28.19 22.492a4.65 4.65 0 0 0-4.652 4.652c0 2.554 2.098 4.652 4.651 4.652h87.365a4.65 4.65 0 0 0 4.652-4.652c0-2.553-2.098-4.652-4.652-4.652H28.19z"/></g></g></svg>
